<svg width="12" height="8" viewBox="0 0 12 8" fill="none" xmlns="http://www.w3.org/2000/svg">
<path d="M0.532 8V7.944C0.56 7.776 0.896 6.74 0.896 5.788V3.156C0.896 2.204 0.574 1.168 0.532 1V0.944H2.926V5.788C2.926 6.74 3.262 7.776 3.304 7.944V8H0.532ZM11.1388 5.788C11.1388 6.74 11.4748 7.776 11.5028 7.944V8H8.73075V7.944C8.77275 7.776 9.09475 6.74 9.09475 5.788V3.492C9.09475 2.512 8.50675 2.148 7.87675 2.134C7.41475 2.12 6.98075 2.302 6.57475 2.61V5.788C6.57475 6.74 6.91075 7.776 6.95275 7.944V8H4.18075V7.944C4.20875 7.776 4.54475 6.74 4.54475 5.788V3.156C4.54475 2.204 4.20875 1.168 4.18075 1V0.944H6.57475V2.162C7.03675 1.448 7.77875 0.859999 8.84275 0.859999C10.0748 0.859999 11.1388 1.616 11.1388 3.212V5.788Z" fill="black"/>
</svg>
