<svg width="18" height="15" viewBox="0 0 18 15" fill="none" xmlns="http://www.w3.org/2000/svg">
<path d="M1 2.625C1 2.19402 1.1712 1.7807 1.47595 1.47595C1.7807 1.1712 2.19402 1 2.625 1H15.625C16.056 1 16.4693 1.1712 16.774 1.47595C17.0788 1.7807 17.25 2.19402 17.25 2.625V12.375C17.25 12.806 17.0788 13.2193 16.774 13.524C16.4693 13.8288 16.056 14 15.625 14H2.625C2.19402 14 1.7807 13.8288 1.47595 13.524C1.1712 13.2193 1 12.806 1 12.375V2.625Z" stroke="black" stroke-linecap="round" stroke-linejoin="round"/>
<path d="M1 4.25L7.09456 9.12581C7.67086 9.58692 8.38694 9.83813 9.125 9.83813C9.86306 9.83813 10.5791 9.58692 11.1554 9.12581L17.25 4.25" stroke="black" stroke-linejoin="round"/>
</svg>
