<svg width="214" height="163" viewBox="0 0 214 163" fill="none" xmlns="http://www.w3.org/2000/svg">
<g filter="url(#filter0_d_11_2)">
<mask id="path-1-inside-1_11_2" fill="white">
<path d="M75 0C83.8366 0 91 7.16344 91 16H197C205.284 16 212 22.7157 212 31V144C212 152.284 205.284 159 197 159H17C8.71573 159 2 152.284 2 144V31C2 23.3935 7.66177 17.1092 15.001 16.1318C15.0006 16.0879 15 16.044 15 16C15 7.16344 22.1634 6.44258e-08 31 0H75Z"/>
</mask>
<path d="M75 0C83.8366 0 91 7.16344 91 16H197C205.284 16 212 22.7157 212 31V144C212 152.284 205.284 159 197 159H17C8.71573 159 2 152.284 2 144V31C2 23.3935 7.66177 17.1092 15.001 16.1318C15.0006 16.0879 15 16.044 15 16C15 7.16344 22.1634 6.44258e-08 31 0H75Z" fill="#F4EFEF"/>
<path d="M91 16H90V17H91V16ZM197 16V15V16ZM212 31H213H212ZM212 144H213H212ZM197 159V160V159ZM17 159V160V159ZM2 144H1H2ZM2 31H1H2ZM15.001 16.1318L15.133 17.1231L16.0081 17.0066L16.0009 16.1238L15.001 16.1318ZM31 0V-1V0ZM75 0V1C83.2843 1 90 7.71573 90 16H91H92C92 6.61116 84.3888 -1 75 -1V0ZM91 16V17H197V16V15H91V16ZM197 16V17C204.732 17 211 23.268 211 31H212H213C213 22.1634 205.837 15 197 15V16ZM212 31H211V144H212H213V31H212ZM212 144H211C211 151.732 204.732 158 197 158V159V160C205.837 160 213 152.837 213 144H212ZM197 159V158H17V159V160H197V159ZM17 159V158C9.26802 158 3 151.732 3 144H2H1C1 152.837 8.16345 160 17 160V159ZM2 144H3V31H2H1V144H2ZM2 31H3C3 23.9014 8.28406 18.0351 15.133 17.1231L15.001 16.1318L14.869 15.1406C7.03948 16.1832 1 22.8856 1 31H2ZM15.001 16.1318L16.0009 16.1238C16.0005 16.0716 16 16.0388 16 16H15H14C14 16.0492 14.0007 16.1043 14.001 16.1399L15.001 16.1318ZM15 16H16C16 7.71573 22.7157 1 31 1V0V-1C21.6112 -1 14 6.61116 14 16H15ZM31 0V1H75V0V-1H31V0Z" fill="#C7C5C5" mask="url(#path-1-inside-1_11_2)"/>
</g>
<path d="M78.36 101.488C77.928 101.488 77.688 101.248 77.64 100.768C77.56 99.936 77.256 98 76.728 94.96C76.216 91.936 75.96 90.096 75.96 89.44C75.96 88.224 76.528 87.24 77.664 86.488C78.8 85.736 80.072 85.36 81.48 85.36C82.536 85.36 83.4 85.664 84.072 86.272C84.744 86.88 85.08 87.696 85.08 88.72C85.08 89.328 84.904 89.888 84.552 90.4C84.216 90.912 83.808 91.312 83.328 91.6C82.304 92.24 81.448 92.56 80.76 92.56C80.28 92.56 80.04 92.32 80.04 91.84C80.04 91.408 80.28 91.176 80.76 91.144C81.256 91.096 81.856 90.84 82.56 90.376C83.28 89.912 83.64 89.368 83.64 88.744C83.64 88.104 83.448 87.624 83.064 87.304C82.68 86.968 82.072 86.8 81.24 86.8C80.424 86.8 79.576 87.04 78.696 87.52C77.832 88 77.4 88.608 77.4 89.344C77.4 90.08 77.736 92.4 78.408 96.304L78.672 94.72C78.752 94.24 78.992 94 79.392 94C79.872 94 80.112 94.24 80.112 94.72C80.112 94.8 80.104 94.888 80.088 94.984L79.152 100.768C79.136 100.912 79.064 101.064 78.936 101.224C78.808 101.4 78.616 101.488 78.36 101.488ZM88.9313 88.96L89.1713 89.92C89.1713 90.4 88.9313 90.64 88.4513 90.64C88.2433 90.64 88.0273 90.472 87.8033 90.136C87.5953 89.8 87.4913 89.392 87.4913 88.912C87.4913 88.432 87.7633 87.952 88.3073 87.472C88.8513 86.992 89.4913 86.608 90.2273 86.32C91.8593 85.68 93.1873 85.36 94.2113 85.36C94.8673 85.36 95.3873 85.56 95.7713 85.96C96.1713 86.344 96.3713 86.928 96.3713 87.712C96.3713 88.496 96.4193 89.224 96.5153 89.896C96.7233 91.192 97.0113 91.84 97.3793 91.84C97.6193 91.84 97.8833 91.72 98.1713 91.48C98.4593 91.24 99.3953 90.392 100.979 88.936C101.091 88.792 101.235 88.72 101.411 88.72C101.891 88.72 102.131 88.96 102.131 89.44L101.891 90.664C101.891 91.272 102.147 91.744 102.659 92.08C103.187 92.4 103.835 92.56 104.603 92.56C105.371 92.56 106.227 92.312 107.171 91.816C108.131 91.32 108.611 90.68 108.611 89.896C108.611 89.112 108.347 88.52 107.819 88.12C107.307 87.72 106.691 87.52 105.971 87.52C105.587 87.52 105.195 87.64 104.795 87.88C104.411 88.12 104.163 88.24 104.051 88.24C103.571 88.24 103.331 88 103.331 87.52C103.331 87.216 103.603 86.904 104.147 86.584C104.707 86.248 105.315 86.08 105.971 86.08C107.107 86.08 108.067 86.416 108.851 87.088C109.651 87.76 110.051 88.704 110.051 89.92C110.051 90.752 109.731 91.496 109.091 92.152C108.451 92.808 107.715 93.28 106.883 93.568C106.067 93.856 105.227 94 104.363 94C103.499 94 102.683 93.76 101.915 93.28C101.147 92.784 100.683 92.12 100.523 91.288C100.427 91.368 100.259 91.536 100.019 91.792C99.7793 92.048 99.5873 92.24 99.4433 92.368C99.2993 92.48 99.1073 92.624 98.8672 92.8C98.4353 93.12 97.9393 93.28 97.3793 93.28C96.5153 93.28 95.8913 92.816 95.5073 91.888C95.1233 90.944 94.9313 89.488 94.9313 87.52C94.9313 87.04 94.6993 86.8 94.2353 86.8C93.4993 86.8 92.6993 86.952 91.8353 87.256C90.9713 87.544 90.2673 87.856 89.7233 88.192C89.1953 88.528 88.9313 88.784 88.9313 88.96ZM115.56 80.032C115.816 80.032 116.08 80.152 116.352 80.392C116.624 80.616 116.76 80.856 116.76 81.112C116.76 81.352 116.648 81.536 116.424 81.664C116.216 81.792 115.984 81.856 115.728 81.856C115.472 81.856 115.256 81.744 115.08 81.52C114.92 81.28 114.84 81.024 114.84 80.752C114.84 80.272 115.08 80.032 115.56 80.032ZM115.176 94L113.592 86.08C113.592 85.6 113.832 85.36 114.312 85.36C114.728 85.36 114.984 85.632 115.08 86.176C115.464 87.952 115.944 90.336 116.52 93.328C117.592 92.848 118.536 92.48 119.352 92.224C120.168 91.968 120.6 91.84 120.648 91.84C121.128 91.84 121.368 92.08 121.368 92.56C121.368 92.912 121.128 93.168 120.648 93.328L120.216 93.472C118.84 93.936 117.696 94.384 116.784 94.816C117.152 96.832 117.336 98.2 117.336 98.92C117.336 99.64 117.136 100.248 116.736 100.744C116.352 101.24 115.808 101.488 115.104 101.488C114.4 101.488 113.696 101.104 112.992 100.336C112.304 99.584 111.96 98.752 111.96 97.84C111.96 96.464 113.032 95.184 115.176 94ZM115.416 95.512C114.072 96.344 113.4 97.12 113.4 97.84C113.4 98.352 113.608 98.848 114.024 99.328C114.456 99.808 114.808 100.048 115.08 100.048C115.368 100.048 115.576 99.928 115.704 99.688C115.832 99.464 115.896 99.184 115.896 98.848C115.896 98.512 115.736 97.4 115.416 95.512ZM122.193 92.608C122.177 92.608 122.057 92.672 121.833 92.8C121.257 93.12 120.833 93.28 120.561 93.28C120.081 93.28 119.841 93.04 119.841 92.56C119.841 92.256 120.081 92.008 120.561 91.816C120.641 91.784 120.833 91.688 121.137 91.528C121.441 91.368 121.617 91.272 121.665 91.24C121.601 91.096 121.569 90.88 121.569 90.592C121.569 89.152 122.073 87.92 123.081 86.896C124.089 85.872 125.009 85.36 125.841 85.36C126.673 85.36 127.329 85.56 127.809 85.96C128.289 86.344 128.529 86.816 128.529 87.376C128.529 87.92 128.401 88.392 128.145 88.792C127.889 89.192 127.489 89.584 126.945 89.968C126.193 90.512 125.097 91.144 123.657 91.864C124.297 92.328 125.185 92.56 126.321 92.56C127.457 92.56 128.577 92.376 129.681 92.008C130.017 91.896 130.209 91.84 130.257 91.84C130.737 91.84 130.977 92.08 130.977 92.56C130.977 92.912 130.737 93.168 130.257 93.328C128.913 93.776 127.617 94 126.369 94C124.593 94 123.201 93.536 122.193 92.608ZM123.009 90.592C125.729 89.232 127.089 88.208 127.089 87.52C127.089 87.04 126.689 86.8 125.889 86.8C125.409 86.8 124.809 87.184 124.089 87.952C123.369 88.704 123.009 89.584 123.009 90.592ZM136.459 94H135.019C133.675 94 132.699 93.688 132.091 93.064C131.483 92.424 131.179 91.616 131.179 90.64C131.179 89.216 131.643 87.984 132.571 86.944C133.499 85.888 134.555 85.36 135.739 85.36C136.411 85.36 137.019 85.496 137.563 85.768C138.107 86.04 138.379 86.304 138.379 86.56C138.379 87.04 138.139 87.28 137.659 87.28C137.451 87.28 137.187 87.2 136.867 87.04C136.547 86.88 136.171 86.8 135.739 86.8C134.875 86.8 134.139 87.208 133.531 88.024C132.923 88.824 132.619 89.624 132.619 90.424C132.619 91.224 132.803 91.784 133.171 92.104C133.555 92.408 134.171 92.56 135.019 92.56H136.459C137.563 92.56 138.667 92.376 139.771 92.008C140.107 91.896 140.299 91.84 140.347 91.84C140.827 91.84 141.067 92.08 141.067 92.56C141.067 92.912 140.827 93.168 140.347 93.328C139.003 93.776 137.707 94 136.459 94ZM142.457 82C142.553 82 143.121 82.08 144.161 82.24L144.377 80.656C144.441 80.176 144.681 79.936 145.097 79.936C145.577 79.936 145.817 80.176 145.817 80.656C145.817 80.72 145.801 80.88 145.769 81.136L145.601 82.456C146.977 82.632 148.169 82.72 149.177 82.72C149.657 82.72 149.897 82.96 149.897 83.44C149.897 83.92 149.657 84.16 149.177 84.16C148.153 84.16 146.905 84.072 145.433 83.896C145.209 85.88 145.097 87.368 145.097 88.36C145.097 89.336 145.409 90.28 146.033 91.192C146.673 92.104 147.393 92.56 148.193 92.56C148.993 92.56 149.729 92.408 150.401 92.104C151.089 91.784 151.697 91.4 152.225 90.952C152.753 90.504 153.281 90.056 153.809 89.608C154.353 89.16 155.009 88.784 155.777 88.48C156.545 88.16 157.425 88 158.417 88C159.425 88 160.337 88.408 161.153 89.224C161.969 90.04 162.377 90.936 162.377 91.912C162.377 92.888 162.073 93.68 161.465 94.288C160.857 94.896 160.145 95.2 159.329 95.2C158.513 95.2 157.817 94.928 157.241 94.384C156.665 93.856 156.377 93.408 156.377 93.04C156.377 92.56 156.617 92.32 157.097 92.32C157.225 92.32 157.385 92.44 157.577 92.68C158.121 93.4 158.649 93.76 159.161 93.76C159.689 93.76 160.113 93.6 160.433 93.28C160.769 92.944 160.937 92.544 160.937 92.08C160.937 91.36 160.673 90.744 160.145 90.232C159.633 89.704 159.001 89.44 158.249 89.44C157.497 89.44 156.777 89.6 156.089 89.92C155.401 90.224 154.793 90.6 154.265 91.048C153.753 91.496 153.225 91.944 152.681 92.392C151.385 93.464 149.897 94 148.217 94C146.985 94 145.913 93.408 145.001 92.224C144.105 91.04 143.657 89.832 143.657 88.6C143.657 87.368 143.769 85.728 143.993 83.68C143.785 83.648 143.505 83.608 143.153 83.56C142.817 83.496 142.585 83.456 142.457 83.44C141.977 83.36 141.737 83.12 141.737 82.72C141.737 82.24 141.977 82 142.457 82Z" fill="black"/>
<path d="M42.1468 80.7812C43.0449 78.0172 46.9551 78.0172 47.8532 80.7812L48.8167 83.7467C49.2184 84.9828 50.3702 85.8197 51.6699 85.8197H54.7881C57.6943 85.8197 58.9026 89.5385 56.5514 91.2467L54.0288 93.0795C52.9773 93.8435 52.5373 95.1976 52.939 96.4336L53.9025 99.3992C54.8006 102.163 51.6372 104.461 49.286 102.753L46.7634 100.92C45.7119 100.157 44.2881 100.157 43.2366 100.92L40.714 102.753C38.3628 104.461 35.1994 102.163 36.0975 99.3992L37.061 96.4336C37.4627 95.1976 37.0227 93.8435 35.9712 93.0795L33.4486 91.2467C31.0974 89.5385 32.3057 85.8197 35.2119 85.8197H38.3301C39.6298 85.8197 40.7816 84.9828 41.1833 83.7467L42.1468 80.7812Z" fill="#21345F"/>
<defs>
<filter id="filter0_d_11_2" x="0" y="0" width="214" height="163" filterUnits="userSpaceOnUse" color-interpolation-filters="sRGB">
<feFlood flood-opacity="0" result="BackgroundImageFix"/>
<feColorMatrix in="SourceAlpha" type="matrix" values="0 0 0 0 0 0 0 0 0 0 0 0 0 0 0 0 0 0 127 0" result="hardAlpha"/>
<feOffset dy="2"/>
<feGaussianBlur stdDeviation="1"/>
<feComposite in2="hardAlpha" operator="out"/>
<feColorMatrix type="matrix" values="0 0 0 0 0 0 0 0 0 0 0 0 0 0 0 0 0 0 0.5 0"/>
<feBlend mode="normal" in2="BackgroundImageFix" result="effect1_dropShadow_11_2"/>
<feBlend mode="normal" in="SourceGraphic" in2="effect1_dropShadow_11_2" result="shape"/>
</filter>
</defs>
</svg>
