<svg width="460" height="568" viewBox="0 0 460 568" fill="none" xmlns="http://www.w3.org/2000/svg">
<rect x="30" width="1" height="568" fill="#E4615A"/>
<rect y="28" width="1" height="460" transform="rotate(-90 0 28)" fill="#6C89C4"/>
<rect y="196" width="1" height="460" transform="rotate(-90 0 196)" fill="#6C89C4"/>
<rect y="364" width="1" height="460" transform="rotate(-90 0 364)" fill="#6C89C4"/>
<rect y="532" width="1" height="460" transform="rotate(-90 0 532)" fill="#6C89C4"/>
<rect y="56" width="1" height="460" transform="rotate(-90 0 56)" fill="#6C89C4"/>
<rect y="224" width="1" height="460" transform="rotate(-90 0 224)" fill="#6C89C4"/>
<rect y="392" width="1" height="460" transform="rotate(-90 0 392)" fill="#6C89C4"/>
<rect y="560" width="1" height="460" transform="rotate(-90 0 560)" fill="#6C89C4"/>
<rect y="84" width="1" height="460" transform="rotate(-90 0 84)" fill="#6C89C4"/>
<rect y="252" width="1" height="460" transform="rotate(-90 0 252)" fill="#6C89C4"/>
<rect y="420" width="1" height="460" transform="rotate(-90 0 420)" fill="#6C89C4"/>
<rect y="112" width="1" height="460" transform="rotate(-90 0 112)" fill="#6C89C4"/>
<rect y="280" width="1" height="460" transform="rotate(-90 0 280)" fill="#6C89C4"/>
<rect y="448" width="1" height="460" transform="rotate(-90 0 448)" fill="#6C89C4"/>
<rect y="140" width="1" height="460" transform="rotate(-90 0 140)" fill="#6C89C4"/>
<rect y="308" width="1" height="460" transform="rotate(-90 0 308)" fill="#6C89C4"/>
<rect y="476" width="1" height="460" transform="rotate(-90 0 476)" fill="#6C89C4"/>
<rect y="168" width="1" height="460" transform="rotate(-90 0 168)" fill="#6C89C4"/>
<rect y="336" width="1" height="460" transform="rotate(-90 0 336)" fill="#6C89C4"/>
<rect y="504" width="1" height="460" transform="rotate(-90 0 504)" fill="#6C89C4"/>
</svg>
